<?xml version="1.0" standalone="no"?>
<!DOCTYPE svg PUBLIC "-//W3C//DTD SVG 20010904//EN"
 "http://www.w3.org/TR/2001/REC-SVG-20010904/DTD/svg10.dtd">
<svg version="1.0" xmlns="http://www.w3.org/2000/svg"
 width="1080.000000pt" height="1080.000000pt" viewBox="0 0 1080.000000 1080.000000"
 preserveAspectRatio="xMidYMid meet">

<g transform="translate(0.000000,1080.000000) scale(0.100000,-0.100000)"
fill="#000000" stroke="none">
<path d="M0 5400 l0 -5400 5400 0 5400 0 0 5400 0 5400 -5400 0 -5400 0 0
-5400z m6120 3520 c495 -15 806 -33 1170 -70 118 -12 503 -69 509 -76 7 -6
-19 -5 -84 6 -894 148 -3117 171 -4270 45 -123 -13 -378 -48 -455 -62 -19 -3
-32 -3 -29 1 8 9 341 64 459 77 230 24 540 49 725 59 508 28 1403 37 1975 20z
m290 -59 c386 -18 799 -52 988 -82 35 -5 84 -8 110 -6 26 3 34 2 17 -1 -26 -4
-22 -6 30 -18 77 -16 114 -16 55 1 -68 20 -17 17 111 -5 191 -34 304 -60 380
-85 40 -14 75 -23 77 -20 3 3 10 1 16 -4 6 -4 38 -16 71 -26 33 -10 65 -21 70
-25 6 -4 39 -17 75 -30 36 -13 87 -34 113 -47 30 -15 57 -22 70 -18 17 5 19 4
7 -4 -12 -9 -9 -11 15 -12 17 -1 34 -1 38 0 5 1 6 -3 2 -9 -3 -6 3 -10 15 -10
24 0 143 -61 240 -124 317 -206 552 -497 693 -861 116 -300 167 -589 167 -952
0 -461 -99 -893 -295 -1282 -49 -98 -142 -250 -190 -309 -200 -249 -383 -407
-619 -536 -242 -132 -569 -216 -836 -216 -168 0 -473 40 -528 70 -9 4 -38 14
-64 20 -26 7 -46 16 -43 20 2 4 -7 5 -20 2 -15 -2 -25 0 -25 7 0 6 -9 11 -20
11 -10 0 -34 6 -52 14 -18 8 -48 20 -66 27 -67 25 -23 17 67 -11 52 -17 99
-30 106 -30 6 0 26 -7 43 -16 18 -8 36 -13 42 -9 5 3 10 1 10 -5 0 -6 4 -9 9
-5 5 3 55 -2 110 -10 56 -8 117 -15 137 -15 21 0 33 -4 29 -10 -3 -5 4 -11 17
-11 19 -1 18 -3 -7 -9 -20 -5 -4 -7 45 -5 41 1 120 3 175 5 67 1 92 5 75 10
-21 7 -17 8 20 9 71 2 284 49 400 88 104 35 310 132 341 159 8 8 19 14 23 14
13 0 165 108 261 186 277 225 490 529 618 884 79 220 95 280 126 475 12 72 24
146 27 165 10 55 6 513 -5 561 -5 24 -12 73 -16 109 -8 75 -50 324 -61 359
-10 30 -12 3 -4 -34 6 -22 20 -101 32 -175 20 -118 23 -171 23 -420 0 -348
-17 -498 -85 -755 -75 -284 -227 -601 -364 -759 -40 -46 -55 -57 -73 -53 -13
2 -26 0 -29 -4 -3 -5 -10 -9 -16 -9 -11 0 -12 0 73 111 104 139 142 202 221
374 123 266 197 533 229 825 19 168 17 577 -2 669 -5 20 -18 86 -29 146 -34
172 -82 334 -132 444 -16 34 -27 70 -24 78 3 8 2 12 -3 9 -15 -9 -52 64 -46
88 5 15 4 17 -3 7 -8 -11 -17 -2 -39 38 -58 108 -233 309 -336 387 -33 24 -55
44 -50 44 4 1 -7 7 -24 15 -18 8 -33 19 -33 25 0 5 -5 10 -11 10 -6 0 -24 11
-41 25 -16 14 -35 25 -42 25 -8 0 -26 10 -42 22 -15 12 -33 23 -38 24 -6 2
-85 37 -175 79 -91 42 -244 103 -341 135 -171 57 -366 107 -377 96 -3 -3 8 -8
23 -11 157 -32 482 -135 426 -135 -7 0 -20 4 -30 9 -19 10 -191 59 -317 90
-586 145 -1344 206 -2525 206 -1339 -1 -2164 -83 -2760 -275 -51 -17 -98 -30
-104 -30 -14 1 155 70 171 70 7 0 47 11 90 24 43 13 115 32 160 42 45 10 80
20 78 23 -11 11 -354 -80 -495 -132 -178 -65 -540 -235 -548 -257 -2 -5 -10
-6 -19 -3 -10 4 -14 2 -10 -4 3 -5 -11 -19 -31 -31 -21 -11 -47 -29 -59 -39
-12 -10 -41 -34 -64 -53 -67 -53 -152 -138 -206 -205 -63 -78 -153 -210 -153
-225 0 -6 -5 -8 -12 -4 -6 4 -8 3 -5 -3 4 -6 -4 -31 -18 -55 -102 -183 -205
-554 -223 -808 -12 -165 -5 -661 9 -638 3 5 9 -13 12 -40 26 -224 150 -594
280 -842 37 -71 167 -260 222 -324 14 -16 25 -34 25 -40 0 -6 -7 -1 -15 11
-11 16 -23 21 -45 18 -30 -3 -35 1 -104 85 -79 98 -191 309 -261 495 -83 219
-126 413 -156 702 -14 135 -7 562 10 647 8 35 9 62 3 68 -5 5 -9 4 -9 -4 -1
-7 -6 -49 -11 -93 -37 -285 -48 -525 -32 -679 38 -367 108 -622 246 -901 74
-150 102 -199 139 -250 110 -151 154 -204 245 -295 229 -233 513 -411 795
-501 72 -22 146 -44 165 -49 19 -4 67 -16 105 -26 50 -13 115 -18 230 -19 127
-2 142 -1 75 5 l-85 7 95 1 c52 1 151 9 220 18 69 9 137 17 152 18 14 1 24 4
22 8 -3 4 8 7 23 7 29 -1 51 3 68 12 6 3 37 14 70 24 33 10 77 24 99 32 62 22
53 7 -11 -17 -142 -54 -220 -80 -246 -80 -15 0 -38 -6 -50 -14 -46 -29 -320
-66 -492 -66 -325 0 -680 107 -964 290 -216 140 -418 340 -567 563 -137 204
-276 540 -343 828 -51 221 -65 359 -66 659 0 344 20 502 95 760 159 544 472
926 961 1172 54 27 103 46 109 43 5 -3 18 -1 27 5 16 9 15 10 -4 5 -13 -4 -23
-4 -23 -1 0 6 57 22 109 31 19 3 42 10 52 15 45 25 349 122 459 148 183 43
368 72 430 67 47 -3 50 -3 20 5 -30 8 -28 8 17 4 28 -2 98 2 155 10 256 37
584 62 993 76 165 6 332 12 370 14 144 7 1379 -3 1595 -13z m1443 -98 c-7 -2
-21 -2 -30 0 -10 3 -4 5 12 5 17 0 24 -2 18 -5z m-1658 -22 c247 -16 508 -40
595 -56 41 -8 156 -28 255 -44 99 -16 228 -41 287 -55 117 -28 272 -76 265
-82 -2 -2 -23 3 -47 11 -55 19 -59 19 -57 -6 1 -16 6 -19 27 -14 14 3 20 2 14
-2 -7 -4 -15 -45 -19 -90 -4 -46 -11 -83 -16 -83 -13 0 -11 -78 2 -86 8 -4 7
-9 -2 -15 -11 -7 -9 -9 6 -10 14 -1 10 -4 -10 -9 l-30 -8 28 -1 c15 0 27 -5
27 -10 0 -6 -15 -8 -32 -6 -110 14 -854 63 -1148 75 -318 13 -1556 13 -1865 0
-328 -14 -875 -49 -1087 -70 -53 -5 -104 -7 -112 -4 -7 3 -17 1 -21 -5 -3 -6
-18 -11 -33 -11 -24 0 -25 1 -7 14 15 11 18 25 17 77 -1 35 -6 65 -12 67 -15
5 -13 169 3 176 6 3 -1 4 -18 1 -23 -3 -19 1 20 19 73 34 334 96 545 130 52 9
146 25 208 36 141 25 370 46 657 60 121 6 247 12 280 14 123 7 1116 -3 1280
-13z m-3917 -145 l34 -12 -151 -71 c-83 -40 -181 -93 -219 -118 -38 -25 -74
-45 -80 -45 -15 0 -26 44 -18 74 27 109 306 219 434 172z m6325 -32 c123 -49
329 -175 313 -191 -2 -3 -42 18 -89 46 -46 28 -138 75 -203 104 -182 82 -177
78 -126 72 24 -3 71 -17 105 -31z m-5403 -94 c0 -5 -4 -10 -10 -10 -5 0 -10 5
-10 10 0 6 5 10 10 10 6 0 10 -4 10 -10z m-3 -132 c-2 -13 -4 -3 -4 22 0 25 2
35 4 23 2 -13 2 -33 0 -45z m1087 -886 c27 -48 79 -139 116 -202 36 -63 79
-137 94 -164 l28 -48 37 63 c21 35 87 148 146 252 l108 187 182 0 182 0 128
-222 c70 -123 136 -236 145 -252 l17 -28 55 93 c30 52 86 148 123 214 38 66
79 137 92 158 l24 39 302 -4 c296 -4 304 -4 382 -31 204 -68 359 -229 412
-429 22 -84 22 -234 -1 -312 -52 -176 -181 -326 -340 -397 -25 -11 -46 -22
-46 -25 0 -3 40 -75 90 -159 49 -84 93 -160 96 -169 5 -14 -10 -16 -139 -16
l-145 0 -33 58 c-38 68 -37 67 -178 310 -61 106 -111 195 -111 197 0 2 69 5
153 7 149 3 154 4 219 36 74 36 129 91 168 168 22 43 25 62 25 149 0 89 -3
105 -27 151 -36 69 -106 137 -176 171 -57 28 -58 28 -277 31 l-220 2 -64 -112
c-98 -172 -390 -680 -477 -829 -42 -73 -85 -149 -96 -168 -11 -20 -38 -66 -60
-103 l-40 -68 -183 0 -183 0 -45 78 c-92 159 -98 254 -25 399 23 46 45 83 49
83 4 0 46 -66 93 -147 120 -209 106 -197 148 -127 31 51 179 307 256 442 l24
42 -40 68 c-21 37 -51 87 -64 112 -14 25 -66 115 -116 200 -81 139 -112 181
-112 152 0 -6 -48 -93 -106 -194 -58 -101 -132 -228 -164 -283 -32 -55 -114
-197 -182 -315 -69 -118 -162 -281 -209 -362 l-84 -148 -152 0 c-84 0 -153 2
-153 5 0 3 95 171 211 372 117 202 214 374 216 384 3 10 -36 89 -92 186 -247
428 -335 582 -335 587 0 4 69 6 153 6 l152 0 49 -88z m1484 -934 c12 -24 26
-50 32 -58 8 -12 139 -238 236 -407 13 -23 24 -44 24 -47 0 -3 -69 -6 -152 -6
l-153 0 -43 76 c-24 42 -50 94 -58 116 -18 52 -18 164 0 215 17 48 75 153 85
153 4 0 17 -19 29 -42z m-128 -1408 c152 -52 254 -110 605 -345 347 -233 452
-298 593 -369 253 -127 467 -196 717 -231 50 -7 73 -13 53 -14 -106 -3 -359
47 -530 105 -154 52 -409 175 -553 266 -88 56 -394 263 -420 285 -37 31 -257
163 -340 204 -134 65 -234 91 -360 91 -200 1 -366 -71 -730 -317 -431 -291
-519 -345 -690 -426 -253 -119 -607 -213 -783 -208 -41 1 -37 3 25 10 210 24
454 97 663 196 219 104 309 160 815 504 179 123 329 204 451 245 116 39 149
43 274 40 99 -3 129 -8 210 -36z m-1750 -720 c-8 -5 -19 -10 -25 -10 -5 0 -3
5 5 10 8 5 20 10 25 10 6 0 3 -5 -5 -10z m3806 -162 c-42 -6 -72 -6 -78 0 -5
5 21 9 69 10 l78 0 -69 -10z m141 6 c-3 -3 -12 -4 -19 -1 -8 3 -5 6 6 6 11 1
17 -2 13 -5z m-5083 -979 c8 -27 33 -124 56 -215 23 -91 47 -185 55 -210 7
-25 23 -89 36 -143 17 -74 28 -102 46 -116 12 -11 23 -22 23 -25 0 -4 -49 -6
-110 -5 -60 0 -110 3 -110 6 0 2 5 14 11 25 9 16 4 39 -21 112 -18 50 -36 95
-40 99 -4 5 -40 10 -79 10 l-72 2 -10 -40 c-5 -22 -17 -69 -26 -104 -17 -63
-17 -64 5 -82 12 -9 22 -19 22 -21 0 -2 -55 -5 -122 -6 -120 -2 -122 -2 -100
15 18 15 40 82 112 338 50 176 97 340 105 365 l15 45 95 0 95 0 14 -50z m823
12 l34 -33 -116 -118 c-108 -111 -115 -120 -102 -140 8 -11 66 -111 129 -221
64 -110 125 -216 137 -235 11 -19 24 -42 28 -50 3 -8 21 -39 40 -67 18 -29 31
-53 29 -53 -6 0 -94 39 -185 81 -46 22 -94 42 -107 45 -29 8 -49 30 -34 39 5
3 10 15 10 26 0 19 -196 419 -205 419 -3 0 -5 -86 -5 -190 l0 -191 31 -13 c30
-13 30 -13 -38 -19 -37 -4 -97 -7 -132 -7 l-64 0 21 23 c22 23 22 28 22 359 0
321 -1 336 -20 358 -11 13 -20 23 -20 24 0 1 116 0 257 -1 l257 -2 33 -34z
m482 33 c70 0 82 -2 68 -12 -9 -7 -26 -47 -37 -88 -12 -41 -26 -91 -32 -110
-5 -19 -39 -128 -74 -242 -81 -258 -84 -274 -54 -283 61 -19 -87 -34 -183 -19
-29 5 -34 9 -23 18 7 6 59 148 116 316 137 410 129 378 103 400 -25 20 -19 34
12 26 11 -3 58 -6 104 -6z m739 -15 c-10 -11 -21 -29 -24 -40 -2 -11 -29 -132
-60 -270 -96 -436 -92 -422 -118 -427 -13 -3 -45 -4 -72 -4 l-48 1 -33 105
c-18 58 -69 220 -113 360 -57 185 -85 260 -101 273 -20 16 -17 17 107 16 83 0
121 -3 108 -9 -12 -5 -25 -13 -28 -19 -6 -10 114 -444 121 -437 6 5 103 405
103 422 0 8 -14 21 -30 28 -17 7 -28 14 -26 17 2 2 56 4 118 4 113 0 114 0 96
-20z m620 -18 l32 -31 -115 -116 c-63 -63 -115 -118 -115 -121 0 -4 40 -76 89
-160 124 -215 235 -407 261 -451 12 -21 20 -38 18 -38 -3 0 -60 25 -129 56
-68 31 -143 65 -167 75 -40 17 -42 20 -27 35 10 10 13 24 9 38 -9 27 -203 416
-208 416 -2 0 -4 -85 -5 -189 -2 -162 0 -191 14 -205 9 -9 24 -16 33 -17 14 0
13 -2 -3 -9 -11 -5 -72 -9 -135 -9 -107 0 -114 1 -92 16 l22 15 0 346 c0 328
-1 347 -19 366 l-20 21 262 -3 262 -3 33 -32z m971 -48 c-25 -53 -35 -67 -41
-55 -8 14 -35 16 -173 16 l-165 0 0 -250 0 -250 159 0 c152 0 161 1 175 21 14
21 15 21 31 -17 26 -61 45 -115 45 -130 0 -12 -44 -14 -247 -14 -245 0 -246 0
-289 25 l-43 25 -1 329 0 330 33 25 33 26 255 2 c140 2 255 0 257 -4 2 -5 -11
-40 -29 -79z m1044 84 c4 -3 -5 -14 -20 -23 l-27 -16 0 -287 c-1 -335 -18
-300 139 -295 l100 3 3 293 2 293 -30 10 c-16 6 -30 14 -30 17 0 4 59 7 130 7
72 0 130 -2 130 -5 0 -3 -9 -11 -20 -18 -19 -12 -20 -23 -20 -340 l0 -328 -29
-34 -29 -35 -223 -2 -224 -3 -30 37 -30 36 -2 326 c-1 179 -2 329 -3 333 0 4
-10 10 -22 15 -16 5 15 10 92 14 63 3 120 6 126 7 6 1 14 -1 17 -5z m1030 -42
l40 -39 -79 -83 c-44 -46 -88 -92 -99 -104 -11 -11 -31 -32 -44 -47 l-23 -27
63 -88 c35 -48 67 -92 71 -98 5 -5 31 -41 59 -79 l51 -70 -46 -43 -46 -44
-261 2 c-260 1 -260 1 -242 21 17 19 18 46 19 349 2 288 0 333 -15 362 l-16
32 264 -2 265 -3 39 -39z m-1741 16 c-22 -23 -22 -29 -22 -310 l0 -287 159 0
c150 0 161 1 174 21 8 11 17 16 21 11 5 -9 66 -164 66 -169 0 -6 -549 -3 -564
3 -14 5 -16 45 -16 346 0 346 -2 367 -39 395 -13 10 10 12 113 13 l129 0 -21
-23z m-2435 -1150 c-38 -58 -39 -58 -184 -55 -156 4 -153 6 -153 -94 0 -81 -2
-80 145 -76 95 3 100 4 103 26 3 21 0 22 -71 22 -75 0 -76 0 -96 34 -12 18
-21 36 -21 40 0 3 65 6 145 6 l145 0 0 -73 c0 -86 -14 -112 -68 -127 -48 -13
-280 -13 -319 0 -48 17 -63 55 -63 160 0 152 2 153 255 160 105 3 192 4 194 3
2 -1 -3 -13 -12 -26z m195 -114 c6 15 22 17 120 17 l113 0 -3 59 -4 58 32 7
c18 3 43 6 56 6 l24 0 0 -170 0 -170 -49 0 c-48 0 -48 0 -55 38 -3 20 -6 55
-6 76 0 31 -3 37 -12 28 -8 -8 -49 -12 -120 -12 l-108 0 0 -65 0 -65 -50 0
-50 0 0 164 0 165 48 3 47 3 5 -80 c3 -47 8 -73 12 -62z m815 121 c26 -19 28
-27 31 -94 3 -64 0 -76 -19 -97 l-23 -23 22 -45 c12 -25 22 -48 22 -50 0 -3
-24 -5 -54 -5 -53 0 -53 0 -77 45 l-24 45 -72 0 c-40 0 -73 4 -73 8 0 4 13 23
28 42 27 32 32 34 83 31 67 -3 95 14 85 52 l-6 27 -115 0 c-102 0 -115 -2
-116 -17 -4 -57 -5 -86 -7 -155 l-2 -78 -50 0 -50 0 0 171 0 171 194 -4 c179
-3 197 -5 223 -24z m486 12 c50 -20 67 -43 67 -87 l0 -39 -54 0 c-49 0 -55 2
-58 23 -3 21 -6 22 -118 22 l-115 0 -3 -74 c-2 -53 1 -77 10 -82 15 -10 189
-12 212 -3 9 3 16 15 16 25 0 16 8 19 55 19 l55 0 0 -35 c0 -43 -36 -81 -84
-91 -19 -3 -98 -4 -175 -2 -134 3 -142 4 -165 28 -23 22 -26 36 -32 130 -6 98
-5 107 15 132 12 15 37 32 54 37 52 15 283 13 320 -3z m465 4 l83 0 -3 -37 -3
-38 -157 -3 -158 -3 0 -29 c0 -31 9 -37 26 -20 7 7 65 10 153 8 l142 -3 -28
-37 -28 -37 -130 -3 c-126 -3 -130 -4 -133 -25 l-3 -23 155 0 c86 0 156 -3
156 -6 0 -3 -12 -21 -26 -40 l-26 -34 -179 0 -179 0 0 171 0 172 128 -6 c70
-4 164 -7 210 -7z m689 -8 c43 -41 43 -42 43 -184 l0 -138 -50 0 -50 0 0 119
c0 70 -4 122 -10 126 -6 3 -37 8 -70 11 l-60 4 0 -130 0 -131 -52 3 -53 3 -5
125 -5 125 -68 0 -67 0 0 -127 0 -128 -50 0 -50 0 0 168 0 167 272 -5 c150 -3
274 -7 275 -8z m-3297 -147 l0 -25 -630 0 -630 0 0 25 0 25 630 0 630 0 0 -25z
m4850 0 l0 -25 -630 0 -630 0 0 25 0 25 630 0 630 0 0 -25z"/>
<path d="M3175 8750 c-28 -7 -28 -8 -5 -9 14 0 32 4 40 9 17 11 8 11 -35 0z"/>
<path d="M3070 8730 c-20 -6 -21 -8 -5 -8 11 0 31 4 45 8 20 6 21 8 5 8 -11 0
-31 -4 -45 -8z"/>
<path d="M7725 8725 c28 -8 59 -14 70 -14 l20 0 -20 8 c-11 5 -42 11 -70 14
l-50 6 50 -14z"/>
<path d="M1276 7465 c-9 -26 -7 -32 5 -12 6 10 9 21 6 23 -2 3 -7 -2 -11 -11z"/>
<path d="M9522 7460 c0 -14 2 -19 5 -12 2 6 2 18 0 25 -3 6 -5 1 -5 -13z"/>
<path d="M1251 7384 c-7 -20 -11 -38 -8 -40 3 -3 10 11 17 31 16 47 8 55 -9 9z"/>
<path d="M9541 7400 c0 -8 6 -28 14 -45 7 -16 14 -23 14 -15 0 8 -6 29 -14 45
-7 17 -14 23 -14 15z"/>
<path d="M9570 7310 c0 -8 5 -22 10 -30 9 -13 10 -13 10 0 0 8 -5 22 -10 30
-9 13 -10 13 -10 0z"/>
<path d="M1221 7288 c0 -9 -4 -25 -7 -35 -5 -17 -5 -17 6 0 6 10 9 25 7 35 -4
15 -5 15 -6 0z"/>
<path d="M1181 7127 c-7 -32 -10 -61 -8 -64 9 -8 29 76 25 100 -3 14 -9 -1
-17 -36z"/>
<path d="M9631 6464 c0 -11 3 -14 6 -6 3 7 2 16 -1 19 -3 4 -6 -2 -5 -13z"/>
<path d="M9622 6335 c0 -16 2 -22 5 -12 2 9 2 23 0 30 -3 6 -5 -1 -5 -18z"/>
<path d="M1182 6330 c0 -14 2 -19 5 -12 2 6 2 18 0 25 -3 6 -5 1 -5 -13z"/>
<path d="M9612 6265 c0 -16 2 -22 5 -12 2 9 2 23 0 30 -3 6 -5 -1 -5 -18z"/>
<path d="M9135 5060 c-3 -5 -1 -10 4 -10 6 0 11 5 11 10 0 6 -2 10 -4 10 -3 0
-8 -4 -11 -10z"/>
<path d="M3235 4225 c-24 -11 -26 -14 -9 -15 11 0 26 6 32 12 9 9 15 10 20 2
4 -6 17 -7 32 -3 23 6 23 7 3 8 -12 1 -27 3 -35 5 -7 2 -26 -2 -43 -9z"/>
<path d="M3388 4233 c7 -3 16 -2 19 1 4 3 -2 6 -13 5 -11 0 -14 -3 -6 -6z"/>
<path d="M7418 4233 c6 -2 18 -2 25 0 6 3 1 5 -13 5 -14 0 -19 -2 -12 -5z"/>
<path d="M7490 4230 l-35 -7 38 -2 c20 0 37 4 37 9 0 6 -1 9 -2 9 -2 -1 -19
-5 -38 -9z"/>
<path d="M2612 3078 c-14 -51 -36 -171 -34 -178 3 -9 82 -8 87 1 7 10 -25 201
-35 212 -4 4 -12 -11 -18 -35z"/>
<path d="M3234 3191 c-9 -9 -4 -173 5 -169 6 2 47 39 92 83 91 89 94 82 -29
87 -35 2 -66 1 -68 -1z"/>
<path d="M5060 3104 c0 -47 4 -84 9 -82 14 5 171 152 171 161 0 4 -40 7 -90 7
l-90 0 0 -86z"/>
<path d="M8088 3193 c-2 -5 -1 -54 2 -110 l5 -101 108 101 c59 56 107 105 107
110 0 4 -49 7 -109 7 -61 0 -111 -3 -113 -7z"/>
<path d="M8088 2809 c-2 -72 1 -133 5 -136 11 -7 187 -6 194 1 5 5 -184 266
-193 266 -1 0 -4 -59 -6 -131z"/>
</g>
</svg>
